<svg xmlns="http://www.w3.org/2000/svg" viewBox="0 0 152.08 96.31"><defs><style>.cls-1{fill:none;stroke-linecap:round;}.cls-1,.cls-2{stroke:#000;stroke-miterlimit:10;stroke-width:10px;}</style></defs><g id="Layer_2" data-name="Layer 2"><g id="Layer_1-2" data-name="Layer 1"><path class="cls-1" d="M147.08,19H27.72C15.18,19,5,27.8,5,38.64V71.36C5,82.2,15.18,91,27.72,91"/><path class="cls-2" d="M144.45,23.16l-21.19,9.73a4.42,4.42,0,0,1-6.26-4V9.43a4.42,4.42,0,0,1,6.26-4l21.19,9.72A4.41,4.41,0,0,1,144.45,23.16Z"/><path d="M43,72.57a6.33,6.33,0,0,1,1.5-3.83,5.56,5.56,0,0,1,4.07-2.28H51.7a6.48,6.48,0,0,0,4.85-1.75,2.26,2.26,0,0,0,.52-1.62,6.62,6.62,0,0,0-2.42-4.64,9.38,9.38,0,0,0-6-2.15,9.73,9.73,0,0,0-4.46,1,4.3,4.3,0,0,1-2,.54,2.5,2.5,0,0,1-2.49-2.76,7.21,7.21,0,0,1,3.6-5.58,17.89,17.89,0,0,1,8.4-2.09A14.19,14.19,0,0,1,61,50.72a11.6,11.6,0,0,1,4.13,9,14.62,14.62,0,0,1-3.28,9,12.37,12.37,0,0,1,6.56,10.89,14.85,14.85,0,0,1-3.68,9.69,19.09,19.09,0,0,1-14.81,7,25.9,25.9,0,0,1-10-1.88,2.66,2.66,0,0,1-1.51-2.56A6.34,6.34,0,0,1,40,88,5.56,5.56,0,0,1,44,85.75a2.51,2.51,0,0,1,1,.21A21.23,21.23,0,0,0,53,87.44c3,0,5.51-1,6.69-2.42a3,3,0,0,0,.65-2c0-4.58-5.57-7.67-10.42-7.67H45.47A2.5,2.5,0,0,1,43,72.57Z"/><path d="M78.84,55.16A23,23,0,0,1,86.64,49a16.49,16.49,0,0,1,7-1.61,15.59,15.59,0,0,1,10.3,4c4.72,4,7.73,10.75,7.73,18.76a29.11,29.11,0,0,1-6.36,18.42,22.26,22.26,0,0,1-7.8,6.19,16.43,16.43,0,0,1-6.95,1.61,15.4,15.4,0,0,1-10.23-3.9c-4.72-4.1-7.8-11-7.8-19A28.7,28.7,0,0,1,78.84,55.16Zm7.8,29.52a10.8,10.8,0,0,0,7,2.76,8.14,8.14,0,0,0,6.63-3.23,17.62,17.62,0,0,0,3.34-10.76c0-5.85-2.43-11.3-6-14.39a11,11,0,0,0-7-2.83,8.12,8.12,0,0,0-6.62,3.23,17,17,0,0,0-3.35,10.63C80.54,76,83,81.52,86.64,84.68Z"/></g></g></svg>